HIERARCHY
ROOT Hips
{
	OFFSET 0.000000 0.000000 0.000000 
	CHANNELS 6 Xposition Yposition Zposition Zrotation Yrotation Xrotation
	JOINT LeftUpLeg
	{
		OFFSET 1.363060 -1.794630 0.839290 
		CHANNELS 3 Zrotation Yrotation Xrotation
		JOINT LeftLeg
		{
			OFFSET 2.448110 -6.726130 0.000000 
			CHANNELS 3 Zrotation Yrotation Xrotation
			JOINT LeftFoot
			{
				OFFSET 2.562200 -7.039590 0.000000 
				CHANNELS 3 Zrotation Yrotation Xrotation
				JOINT LeftToeBase
				{
					OFFSET 0.157640 -0.433110 2.322550 
					CHANNELS 3 Zrotation Yrotation Xrotation
					End Site
					{
						OFFSET 0.000000 0.000000 0.000000 
					}
				}
			}
		}
	}
	JOINT RightUpLeg
	{
		OFFSET -1.305520 -1.794630 0.839290 
		CHANNELS 3 Zrotation Yrotation Xrotation
		JOINT RightLeg
		{
			OFFSET -2.542530 -6.985550 0.000000 
			CHANNELS 3 Zrotation Yrotation Xrotation
			JOINT RightFoot
			{
				OFFSET -2.568260 -7.056230 0.000000 
				CHANNELS 3 Zrotation Yrotation Xrotation
				JOINT RightToeBase
				{
					OFFSET -0.164730 -0.452590 2.363150 
					CHANNELS 3 Zrotation Yrotation Xrotation
					End Site
					{
						OFFSET 0.000000 0.000000 0.000000 
					}
				}
			}
		}
	}
	JOINT Spine
	{
		OFFSET 0.028270 2.035590 -0.193380 
		CHANNELS 3 Zrotation Yrotation Xrotation
		JOINT Spine1
		{
			OFFSET 0.056720 2.048850 -0.042750 
			CHANNELS 3 Zrotation Yrotation Xrotation
			JOINT Neck1
			{
				OFFSET -0.054170 1.746240 0.172020 
				CHANNELS 3 Zrotation Yrotation Xrotation
				JOINT Head
				{
					OFFSET 0.104070 1.761360 -0.123970 
					CHANNELS 3 Zrotation Yrotation Xrotation
					End Site
					{
						OFFSET 0.000000 0.000000 0.000000 
					}
				}
			}
			JOINT LeftArm
			{
				OFFSET 3.362410 1.200890 -0.311210 
				CHANNELS 3 Zrotation Yrotation Xrotation
				JOINT LeftForeArm
				{
					OFFSET 4.983000 -0.000000 -0.000000 
					CHANNELS 3 Zrotation Yrotation Xrotation
					JOINT LeftHand
					{
						OFFSET 3.483560 -0.000000 -0.000000 
						CHANNELS 3 Zrotation Yrotation Xrotation
						JOINT LeftHandIndex1
						{
							OFFSET 0.715260 -0.000000 -0.000000 
							CHANNELS 3 Zrotation Yrotation Xrotation
							End Site
							{
								OFFSET 0.000000 0.000000 0.000000 
							}
						}
					}
				}
			}
			JOINT RightArm
			{
				OFFSET -3.136600 1.374050 -0.404650 
				CHANNELS 3 Zrotation Yrotation Xrotation
				JOINT RightForeArm
				{
					OFFSET -5.241900 -0.000000 -0.000000 
					CHANNELS 3 Zrotation Yrotation Xrotation
					JOINT RightHand
					{
						OFFSET -3.444170 -0.000000 -0.000000 
						CHANNELS 3 Zrotation Yrotation Xrotation
						JOINT RightHandIndex1
						{
							OFFSET -0.622530 -0.000000 -0.000000 
							CHANNELS 3 Zrotation Yrotation Xrotation
							End Site
							{
								OFFSET 0.000000 0.000000 0.000000 
							}
						}
					}
				}
			}
		}
	}
}
MOTION
Frames: 18
Frame Time: 0.041667
20.653482 18.023616 -0.502747 -0.613346 -11.854325 3.908343 -8.701355 -0.151983 -28.267551 9.880403 16.410811 58.463124 0.105863 -1.225662 -1.022033 0.136000 -2.377200 -6.549400 26.239685 13.586048 -11.957977 -3.255527 -8.089454 28.818195 -0.659712 2.834262 -3.874512 -0.069100 1.696000 -4.666200 -4.081647 -3.901568 6.002412 -2.388813 -1.915009 -0.276934 32.402551 -27.798530 -7.453416 8.977000 -15.315300 3.953100 -83.184932 7.533184 9.548692 20.423139 -24.882467 -4.556464 -0.503847 -1.246261 17.636868 -7.125000 0.000000 0.000000 83.265356 2.181661 21.529293 -26.053112 33.065323 -9.102960 0.530821 -0.412260 10.611881 7.125000 0.000000 0.000000 
20.640806 18.022154 -0.368675 -0.997530 -12.134864 3.863087 -8.206589 -0.536200 -28.859880 9.612784 16.276668 57.585026 0.140138 -1.220312 -2.256393 0.203100 -2.902000 -8.006000 26.706957 13.357026 -11.223914 -3.222068 -8.010703 28.608268 -0.680326 2.924420 -3.998676 -0.096900 2.007300 -5.525800 -4.132438 -3.696006 6.027039 -2.713339 -1.804971 -0.396161 31.730146 -28.128413 -6.008680 8.629000 -15.268000 4.269400 -83.223000 7.865079 8.877171 20.560438 -25.089711 -4.625407 -0.529657 -1.170220 17.843258 -7.125000 0.000000 0.000000 83.365403 2.689766 21.850577 -26.778484 33.819737 -9.594070 0.526121 -0.380110 10.477689 7.125000 0.000000 0.000000 
20.629398 18.027126 -0.236455 -1.160131 -12.409820 3.952451 -7.994732 -0.996822 -29.453172 9.226309 16.040877 56.287987 0.138950 -1.052114 -2.744481 0.214200 -2.979600 -8.222100 26.851751 13.174462 -10.991837 -3.269493 -8.073297 28.840359 -0.785500 3.407314 -4.401536 -0.070700 1.715800 -4.720800 -3.986006 -3.547486 5.954522 -2.831108 -1.725966 -0.462077 30.955230 -28.373881 -4.631410 8.275000 -15.175200 4.595800 -83.402109 8.023585 8.547545 20.428000 -24.926635 -4.558846 -0.538651 -1.157613 17.861160 -7.125000 0.000000 0.000000 83.071625 3.104730 22.390062 -27.567702 34.622493 -10.135858 0.520018 -0.326878 10.118125 7.125000 0.000000 0.000000 
20.627448 18.012793 -0.104430 -1.108700 -12.833991 4.002396 -8.023584 -1.329217 -29.977339 8.791830 15.755703 54.814449 0.138631 -0.941821 -3.043945 0.181400 -2.743300 -7.564900 26.681800 12.836206 -10.812073 -3.293698 -8.110392 28.957859 -0.961988 4.316723 -4.766423 -0.034800 1.204500 -3.311700 -3.946923 -3.442185 5.805363 -2.862879 -1.667982 -0.536153 30.364932 -28.388960 -3.506104 8.044500 -15.024400 4.813600 -83.642659 8.304621 8.180739 20.269557 -24.729090 -4.479455 -0.558186 -1.180947 17.433504 -7.125000 0.000000 0.000000 82.774296 3.546214 23.110528 -28.236423 35.282994 -10.605521 0.518717 -0.306899 9.657880 7.125000 0.000000 0.000000 
20.619160 18.010453 0.027790 -1.226379 -13.373079 4.056581 -7.856513 -1.546699 -30.367727 8.261442 15.411254 53.003638 0.108492 -0.544988 -3.427082 0.195300 -2.846200 -7.850700 26.737981 12.854978 -10.347795 -3.293693 -8.098539 28.935728 -1.056347 4.832724 -4.908647 -0.032500 1.163000 -3.197300 -3.957622 -3.355919 5.671942 -2.933836 -1.619005 -0.651927 30.113671 -28.242371 -2.571713 7.948600 -14.836700 4.978300 -83.678119 8.716864 8.131437 20.228033 -24.683214 -4.461410 -0.561371 -1.212169 16.505954 -7.125000 0.000000 0.000000 82.665870 4.030734 24.062865 -28.856109 35.875104 -11.049032 0.531428 -0.300275 8.995727 7.125000 0.000000 0.000000 
20.607069 18.016303 0.159327 -1.047102 -13.733693 4.075823 -7.949531 -2.187871 -30.622405 7.706098 14.991674 51.056257 0.026758 0.252511 -3.981212 0.264900 -3.311200 -9.146500 26.462611 12.832224 -9.830416 -3.257220 -8.046901 28.745568 -1.110430 5.120530 -5.015536 -0.033800 1.187600 -3.265000 -4.029518 -3.260691 5.713108 -2.862740 -1.570584 -0.601624 29.923342 -28.111792 -1.966818 7.872200 -14.687800 5.102600 -83.816240 8.807239 7.876195 20.238382 -24.702197 -4.467413 -0.586329 -1.191901 15.771139 -7.125000 0.000000 0.000000 82.508473 4.670948 24.799418 -29.521733 36.492963 -11.523099 0.541402 -0.267392 8.180730 7.125000 0.000000 0.000000 
20.600243 18.040972 0.291156 -0.885531 -14.005600 4.134433 -8.001975 -2.968607 -30.734518 7.138986 14.535237 49.032586 -0.048191 0.972185 -4.642699 0.306300 -3.558300 -9.837200 26.149280 12.573733 -9.260283 -3.169638 -7.917550 28.292460 -1.135801 5.369385 -4.759329 -0.054500 1.506400 -4.143500 -4.054859 -3.039069 5.693905 -2.899950 -1.458284 -0.554147 29.921428 -28.106092 -1.320484 7.883000 -14.613900 5.304800 -84.173001 8.851940 7.291528 20.267679 -24.751314 -4.483516 -0.641349 -1.125763 15.607614 -7.125000 0.000000 0.000000 82.324704 5.215964 24.997887 -30.185922 37.094997 -11.992774 0.546687 -0.233572 7.715705 7.125000 0.000000 0.000000 
20.593710 18.065739 0.420256 -1.099864 -14.393044 4.302670 -7.606389 -3.549429 -30.884945 6.544316 14.060256 46.880097 -0.111723 1.487188 -4.924711 0.199800 -2.878000 -7.939400 26.259789 12.421316 -8.583453 -3.063425 -7.734988 27.714027 -1.113070 5.465080 -4.124366 -0.078300 1.804900 -4.966700 -3.984074 -2.761911 5.489439 -3.157127 -1.314684 -0.685445 29.861178 -28.194341 -0.142480 7.862900 -14.528400 5.667800 -84.377229 9.059626 6.927051 20.219171 -24.700054 -4.459789 -0.646899 -1.123563 15.885651 -7.125000 0.000000 0.000000 82.124132 5.398982 25.396027 -30.981957 37.801968 -12.569025 0.559436 -0.188685 7.171251 7.125000 0.000000 0.000000 
20.586787 18.096942 0.550526 -1.234147 -14.792574 4.429636 -7.251735 -4.145945 -30.950699 5.921878 13.517518 44.560186 -0.191693 2.032289 -5.028557 0.077700 -1.797700 -4.947000 26.244695 12.206979 -7.906032 -2.942167 -7.527375 27.044446 -1.148876 5.871839 -3.626033 -0.026100 1.043500 -2.868400 -3.954051 -2.577562 5.390126 -3.337525 -1.217994 -0.757727 29.407751 -28.079789 0.810452 7.704700 -14.344700 5.867600 -84.480921 9.306938 6.779718 20.192174 -24.669778 -4.442572 -0.599271 -1.200138 16.019754 -7.125000 0.000000 0.000000 81.926340 5.670788 26.136717 -31.655051 38.375294 -13.055052 0.598822 -0.158747 6.156593 7.125000 0.000000 0.000000 
20.579572 18.122488 0.682745 -1.468534 -15.246908 4.515530 -6.792113 -4.725547 -30.782409 5.274749 12.915385 42.081698 -0.303142 2.751621 -5.171494 0.025300 -1.025900 -2.820000 26.310540 11.905136 -7.155618 -2.821430 -7.312734 26.357816 -1.224530 6.506169 -3.234542 -0.000100 0.055400 -0.152300 -3.871199 -2.290998 5.457579 -3.528817 -1.068600 -0.700467 29.137864 -27.793723 1.106873 7.643500 -14.162000 5.847800 -84.584570 9.585220 6.765135 20.338217 -24.860034 -4.512560 -0.544288 -1.274840 16.098062 -7.125000 0.000000 0.000000 81.918209 6.131313 26.283188 -32.168036 38.796885 -13.416907 0.630970 -0.153225 5.647648 7.125000 0.000000 0.000000 
20.569821 18.133312 0.818475 -1.693617 -15.693342 4.588065 -6.373678 -5.192983 -30.577350 4.619101 12.255254 39.478712 -0.475080 3.757046 -5.181696 0.016300 -0.824000 -2.264800 26.360115 11.411889 -6.409298 -2.693462 -7.084352 25.624485 -1.282596 7.043477 -2.831815 0.000000 0.010900 -0.029900 -3.719484 -2.074319 5.554942 -3.597646 -0.957771 -0.652214 28.553827 -27.554283 2.091927 7.441200 -13.907100 6.025300 -84.811522 9.801066 6.417415 20.488703 -25.063613 -4.586533 -0.545699 -1.280587 16.263569 -7.125000 0.000000 0.000000 81.874927 6.629445 26.433670 -32.715275 39.246174 -13.819450 0.639188 -0.138473 5.717955 7.125000 0.000000 0.000000 
20.560850 18.149595 0.962688 -1.547231 -16.055688 4.568885 -6.366747 -5.698576 -30.340086 3.994216 11.544474 36.879209 -0.708608 5.044809 -5.241929 0.047800 -1.410400 -3.878700 25.955246 10.934568 -5.663205 -2.537983 -6.821189 24.745862 -1.334633 7.566435 -2.384392 -0.000800 0.184500 -0.506900 -3.688095 -2.099021 5.800604 -3.478969 -0.974639 -0.461663 27.719413 -27.217744 3.307260 7.129000 -13.555900 6.276100 -85.073807 9.674332 5.893241 20.263275 -24.778015 -4.473807 -0.603906 -1.249902 15.568955 -7.125000 0.000000 0.000000 81.662890 7.355615 27.446002 -33.089795 39.534782 -14.093240 0.675024 -0.120454 4.999401 7.125000 0.000000 0.000000 
20.554610 18.171535 1.105439 -1.492725 -16.404965 4.527910 -6.223191 -6.272460 -29.984166 3.402287 10.818758 34.298656 -0.970152 6.375336 -5.107337 0.049800 -1.440100 -3.960600 25.667549 10.615059 -4.826319 -2.377920 -6.535482 23.812578 -1.370647 7.995304 -1.920098 -0.003700 0.393100 -1.080200 -3.707281 -1.984518 5.863928 -3.565066 -0.914387 -0.424425 27.522228 -26.871132 3.471136 7.124600 -13.369000 6.241900 -85.201990 9.645659 5.598948 19.937799 -24.350882 -4.310131 -0.600083 -1.262874 15.589970 -7.125000 0.000000 0.000000 81.434485 7.835806 28.252320 -33.406205 39.777033 -14.326211 0.703074 -0.114482 3.937727 7.125000 0.000000 0.000000 
20.553440 18.191621 1.239121 -1.793279 -16.763040 4.565166 -5.684982 -6.757843 -29.699102 2.833849 10.082526 31.694122 -1.190793 7.393623 -4.678235 0.003500 -0.381600 -1.048600 25.821919 10.180572 -3.988676 -2.229923 -6.242721 22.906401 -1.372822 8.257232 -1.282758 -0.015500 0.802800 -2.206200 -3.560886 -1.685437 5.575137 -3.836585 -0.752960 -0.787193 27.058750 -26.735479 3.849551 7.058600 -13.291400 6.227000 -85.414515 10.101546 5.363261 19.919937 -24.331866 -4.298198 -0.554655 -1.267786 16.792718 -7.125000 0.000000 0.000000 81.209592 7.740016 28.469734 -33.979552 40.242318 -14.773337 0.693371 -0.101936 3.504808 7.125000 0.000000 0.000000 
20.551880 18.207807 1.369976 -2.077177 -17.184586 4.782926 -5.224193 -6.989858 -29.689226 2.298768 9.318249 29.087140 -1.365119 8.136328 -4.104670 0.002700 -0.335000 -0.920400 25.895364 9.978223 -3.257190 -2.088505 -5.950330 22.016302 -1.376473 8.590490 -0.489446 -0.003300 0.368900 -1.013700 -3.386461 -1.458831 5.427271 -4.054489 -0.633126 -0.897915 26.676996 -26.496710 4.520500 6.992900 -13.110400 6.355400 -85.718441 10.401345 5.099927 19.924050 -24.345775 -4.303840 -0.584824 -1.228303 17.010446 -7.125000 0.000000 0.000000 81.087871 7.992732 28.718353 -34.450746 40.606563 -15.136024 0.694273 -0.085728 3.445959 7.125000 0.000000 0.000000 
20.541641 18.228576 1.501610 -2.454377 -17.604957 5.132962 -4.654657 -7.244720 -29.683663 1.795767 8.518656 26.453631 -1.541739 8.879955 -3.486625 0.009900 -0.641400 -1.762600 26.001918 10.100471 -2.595874 -1.971068 -5.694115 21.250908 -1.387925 8.948634 0.202562 -0.011500 -0.692400 1.902700 -3.213325 -1.393163 5.527631 -4.210720 -0.594371 -0.691068 26.724656 -25.907243 4.633193 7.068900 -12.796600 6.322700 -85.913383 10.476172 4.799523 19.855679 -24.261058 -4.272669 -0.628051 -1.205420 16.628548 -7.125000 0.000000 0.000000 81.129704 8.877462 29.273563 -34.535069 40.649306 -15.192389 0.712402 -0.076289 3.325962 7.125000 0.000000 0.000000 
20.532671 18.247590 1.639291 -2.649889 -17.933683 5.197871 -4.240941 -7.719251 -29.269207 1.323091 7.674551 23.799696 -1.700964 9.534644 -3.039829 0.001100 -0.213300 -0.586100 25.961489 9.988719 -1.815813 -1.878992 -5.502851 20.655029 -1.386612 9.111709 0.674748 -0.021900 -0.955300 2.625900 -3.210498 -1.377740 5.713790 -4.282639 -0.582122 -0.612471 26.163696 -25.393042 4.751416 6.877500 -12.502800 6.187400 -85.927940 10.605156 4.480482 19.810518 -24.206920 -4.245269 -0.602915 -1.223303 17.101236 -7.125000 0.000000 0.000000 81.143712 9.532899 30.106829 -34.687424 40.754095 -15.316610 0.722123 -0.054687 2.949510 7.125000 0.000000 0.000000 
20.527113 18.250515 1.784966 -2.165290 -18.335155 4.927831 -4.683293 -7.813543 -28.757199 0.899065 6.821206 21.252679 -1.744038 9.635888 -2.531300 0.001500 -0.253100 -0.695500 25.241412 9.683485 -0.928717 -1.780670 -5.335973 20.056135 -1.395114 9.229817 0.879840 -0.009400 -0.626800 1.722400 -3.541866 -1.234009 5.814098 -4.175969 -0.510780 -0.670091 25.618135 -25.084113 4.946426 6.699500 -12.316400 6.119100 -85.858830 10.758203 4.564426 19.613243 -23.942421 -4.149399 -0.597093 -1.215398 17.547921 -7.125000 0.000000 0.000000 81.158739 9.774970 30.517302 -35.036394 41.018779 -15.594375 0.723711 -0.045302 2.845478 7.125000 0.000000 0.000000 
